<svg xmlns="http://www.w3.org/2000/svg" width="223" height="65" viewBox="0 0 223 65" fill="none"><metadata><rdf:RDF xmlns:rdf="http://www.w3.org/1999/02/22-rdf-syntax-ns#" xmlns:dc="http://purl.org/dc/elements/1.1/"><rdf:Description><dc:creator>RealFaviconGenerator</dc:creator><dc:source>https://realfavicongenerator.net</dc:source></rdf:Description></rdf:RDF></metadata><path d="M20.4502 44.8589H26.728C26.6021 46.9165 26.0352 48.7432 25.0273 50.3389C24.0335 51.9346 22.6408 53.1803 20.8491 54.0762C19.0715 54.972 16.9299 55.4199 14.4243 55.4199C12.4647 55.4199 10.708 55.084 9.1543 54.4121C7.60059 53.7262 6.27083 52.7464 5.16504 51.4727C4.07324 50.1989 3.2404 48.6592 2.6665 46.8535C2.09261 45.0479 1.80566 43.0252 1.80566 40.7856V38.665C1.80566 36.4255 2.09961 34.4028 2.6875 32.5972C3.28939 30.7775 4.14323 29.2308 5.24902 27.957C6.36882 26.6833 7.70557 25.7035 9.25928 25.0176C10.813 24.3317 12.5487 23.9888 14.4663 23.9888C17.0138 23.9888 19.1624 24.4507 20.9121 25.3745C22.6758 26.2983 24.0405 27.5721 25.0063 29.1958C25.9862 30.8195 26.5741 32.6672 26.77 34.7388H20.4712C20.4012 33.507 20.1562 32.4642 19.7363 31.6104C19.3164 30.7425 18.6795 30.0916 17.8257 29.6577C16.9858 29.2098 15.866 28.9858 14.4663 28.9858C13.4165 28.9858 12.4997 29.1818 11.7158 29.5737C10.932 29.9657 10.2741 30.5605 9.74219 31.3584C9.21029 32.1562 8.81136 33.1641 8.54541 34.3818C8.29346 35.5856 8.16748 36.9993 8.16748 38.623V40.7856C8.16748 42.3674 8.28646 43.7601 8.52441 44.9639C8.76237 46.1536 9.1263 47.1615 9.61621 47.9873C10.1201 48.7992 10.764 49.415 11.5479 49.835C12.3457 50.2409 13.3045 50.4438 14.4243 50.4438C15.7401 50.4438 16.8249 50.2339 17.6787 49.814C18.5326 49.394 19.1834 48.7712 19.6313 47.9453C20.0933 47.1195 20.3662 46.0907 20.4502 44.8589ZM55.5456 39.001V40.4497C55.5456 42.7733 55.2306 44.8589 54.6008 46.7065C53.9709 48.5542 53.082 50.1289 51.9343 51.4307C50.7865 52.7184 49.4147 53.7052 47.819 54.3911C46.2373 55.077 44.4806 55.4199 42.549 55.4199C40.6314 55.4199 38.8747 55.077 37.279 54.3911C35.6973 53.7052 34.3255 52.7184 33.1637 51.4307C32.002 50.1289 31.0991 48.5542 30.4553 46.7065C29.8254 44.8589 29.5104 42.7733 29.5104 40.4497V39.001C29.5104 36.6634 29.8254 34.5778 30.4553 32.7441C31.0851 30.8965 31.974 29.3218 33.1218 28.02C34.2835 26.7183 35.6553 25.7244 37.237 25.0386C38.8327 24.3527 40.5894 24.0098 42.507 24.0098C44.4387 24.0098 46.1953 24.3527 47.777 25.0386C49.3727 25.7244 50.7445 26.7183 51.8923 28.02C53.054 29.3218 53.9499 30.8965 54.5798 32.7441C55.2236 34.5778 55.5456 36.6634 55.5456 39.001ZM49.1838 40.4497V38.959C49.1838 37.3353 49.0368 35.9076 48.7429 34.6758C48.4489 33.444 48.015 32.4082 47.4411 31.5684C46.8672 30.7285 46.1673 30.0986 45.3415 29.6787C44.5156 29.2448 43.5708 29.0278 42.507 29.0278C41.4432 29.0278 40.4984 29.2448 39.6725 29.6787C38.8607 30.0986 38.1678 30.7285 37.5939 31.5684C37.034 32.4082 36.6071 33.444 36.3132 34.6758C36.0192 35.9076 35.8722 37.3353 35.8722 38.959V40.4497C35.8722 42.0594 36.0192 43.4871 36.3132 44.7329C36.6071 45.9647 37.041 47.0075 37.6149 47.8613C38.1888 48.7012 38.8887 49.3381 39.7145 49.772C40.5404 50.2059 41.4852 50.4229 42.549 50.4229C43.6128 50.4229 44.5576 50.2059 45.3835 49.772C46.2093 49.3381 46.9022 48.7012 47.4621 47.8613C48.022 47.0075 48.4489 45.9647 48.7429 44.7329C49.0368 43.4871 49.1838 42.0594 49.1838 40.4497ZM76.5316 24.4297H82.8094V44.6279C82.8094 46.9795 82.3055 48.9601 81.2977 50.5698C80.3039 52.1795 78.9252 53.3903 77.1615 54.2021C75.4118 55.014 73.3962 55.4199 71.1146 55.4199C68.833 55.4199 66.8034 55.014 65.0257 54.2021C63.2621 53.3903 61.8763 52.1795 60.8685 50.5698C59.8747 48.9601 59.3778 46.9795 59.3778 44.6279V24.4297H65.6766V44.6279C65.6766 45.9997 65.8936 47.1195 66.3275 47.9873C66.7614 48.8551 67.3843 49.492 68.1962 49.8979C69.022 50.3039 69.9948 50.5068 71.1146 50.5068C72.2624 50.5068 73.2352 50.3039 74.0331 49.8979C74.8449 49.492 75.4608 48.8551 75.8807 47.9873C76.3146 47.1195 76.5316 45.9997 76.5316 44.6279V24.4297ZM112.446 24.4297V55H106.147L93.8643 34.5078V55H87.5655V24.4297H93.8643L106.168 44.9429V24.4297H112.446ZM130.534 24.4297V55H124.257V24.4297H130.534ZM139.941 24.4297V29.3638H114.997V24.4297H139.941ZM163.614 50.0869V55H147.342V50.0869H163.614ZM149.4 24.4297V55H143.101V24.4297H149.4ZM161.494 36.8804V41.6675H147.342V36.8804H161.494ZM163.593 24.4297V29.3638H147.342V24.4297H163.593ZM166.858 24.4297H178.259C180.597 24.4297 182.606 24.7796 184.285 25.4795C185.979 26.1794 187.281 27.2152 188.191 28.5869C189.1 29.9587 189.555 31.6453 189.555 33.647C189.555 35.2847 189.275 36.6914 188.715 37.8672C188.17 39.029 187.393 40.0018 186.385 40.7856C185.391 41.5555 184.222 42.1714 182.878 42.6333L180.884 43.6831H170.974L170.932 38.77H178.301C179.407 38.77 180.324 38.5741 181.052 38.1821C181.78 37.7902 182.326 37.2443 182.69 36.5444C183.067 35.8446 183.256 35.0327 183.256 34.1089C183.256 33.1291 183.074 32.2822 182.711 31.5684C182.347 30.8545 181.794 30.3086 181.052 29.9307C180.31 29.5527 179.379 29.3638 178.259 29.3638H173.157V55H166.858V24.4297ZM183.949 55L176.979 41.3735L183.634 41.3315L190.689 54.7061V55H183.949Z" fill="#FF7300"></path><path d="M193.87 43.0322V42.5703C193.87 39.6169 194.178 36.9364 194.794 34.5288C195.424 32.1213 196.25 30.0076 197.272 28.188C198.308 26.3543 199.434 24.8356 200.652 23.6318C201.87 22.4281 203.081 21.5602 204.284 21.0283L205.439 24.2197C204.641 24.8076 203.858 25.6195 203.088 26.6553C202.318 27.6771 201.618 28.9368 200.988 30.4346C200.372 31.9183 199.875 33.668 199.497 35.6836C199.119 37.6852 198.93 39.9668 198.93 42.5283V43.0742C198.93 45.6357 199.119 47.9243 199.497 49.9399C199.875 51.9416 200.372 53.6912 200.988 55.189C201.618 56.7007 202.318 57.9744 203.088 59.0103C203.858 60.0461 204.641 60.8649 205.439 61.4668L204.284 64.5742C203.081 64.0423 201.87 63.1745 200.652 61.9707C199.434 60.7809 198.308 59.2692 197.272 57.4355C196.25 55.6159 195.424 53.5023 194.794 51.0947C194.178 48.6732 193.87 45.9857 193.87 43.0322ZM220.314 42.5703V43.0322C220.314 45.8877 219.992 48.5192 219.348 50.9268C218.704 53.3203 217.85 55.4409 216.786 57.2886C215.737 59.1502 214.582 60.6969 213.322 61.9287C212.076 63.1605 210.83 64.0423 209.585 64.5742L208.409 61.4668C209.207 60.8789 209.984 60.0671 210.739 59.0312C211.509 57.9954 212.209 56.7217 212.839 55.21C213.469 53.7122 213.966 51.9556 214.33 49.9399C214.708 47.9243 214.897 45.6357 214.897 43.0742V42.5283C214.897 39.9668 214.708 37.6782 214.33 35.6626C213.952 33.647 213.441 31.8903 212.797 30.3926C212.167 28.8809 211.467 27.6141 210.697 26.5923C209.942 25.5565 209.179 24.7446 208.409 24.1567L209.585 21.0283C210.83 21.5602 212.076 22.4491 213.322 23.6948C214.582 24.9266 215.737 26.4663 216.786 28.314C217.85 30.1616 218.704 32.2892 219.348 34.6968C219.992 37.0903 220.314 39.7148 220.314 42.5703Z" fill="#0C6FB0"></path><rect width="99" height="19" rx="5" fill="#0C6FB0"></rect><path d="M13.0107 10.9785V4.04688H14.8906V10.9785C14.8906 11.6393 14.7471 12.2067 14.46 12.6807C14.1729 13.1501 13.7809 13.5101 13.2842 13.7607C12.7874 14.0114 12.2269 14.1367 11.6025 14.1367C10.96 14.1367 10.3903 14.0296 9.89355 13.8154C9.39681 13.5967 9.00716 13.264 8.72461 12.8174C8.44661 12.3708 8.30762 11.8034 8.30762 11.1152H10.1943C10.1943 11.4889 10.2513 11.7897 10.3652 12.0176C10.4792 12.2454 10.641 12.4095 10.8506 12.5098C11.0648 12.61 11.3154 12.6602 11.6025 12.6602C11.8805 12.6602 12.1243 12.5964 12.334 12.4688C12.5482 12.3366 12.7145 12.1452 12.833 11.8945C12.9515 11.6439 13.0107 11.3385 13.0107 10.9785ZM20.5645 5.55762L17.7275 14H15.7383L19.457 4.04688H20.7285L20.5645 5.55762ZM22.9365 14L20.0859 5.55762L19.915 4.04688H21.1934L24.9326 14H22.9365ZM22.8066 10.3018V11.7852H17.4678V10.3018H22.8066ZM28.8975 12.0518L31.3789 4.04688H33.4639L29.9502 14H28.5625L28.8975 12.0518ZM26.6074 4.04688L29.0752 12.0518L29.4307 14H28.0293L24.5293 4.04688H26.6074ZM37.9277 5.55762L35.0908 14H33.1016L36.8203 4.04688H38.0918L37.9277 5.55762ZM40.2998 14L37.4492 5.55762L37.2783 4.04688H38.5566L42.2959 14H40.2998ZM40.1699 10.3018V11.7852H34.8311V10.3018H40.1699ZM48.5303 11.416C48.5303 11.2246 48.5007 11.0537 48.4414 10.9033C48.3867 10.7484 48.2842 10.6094 48.1338 10.4863C47.988 10.3587 47.7806 10.2357 47.5117 10.1172C47.2474 9.99414 46.9056 9.86654 46.4863 9.73438C46.0215 9.58854 45.5885 9.42448 45.1875 9.24219C44.7865 9.0599 44.4333 8.84798 44.1279 8.60645C43.8271 8.36491 43.5924 8.08691 43.4238 7.77246C43.2552 7.45345 43.1709 7.08431 43.1709 6.66504C43.1709 6.25488 43.2575 5.88118 43.4307 5.54395C43.6084 5.20671 43.859 4.91732 44.1826 4.67578C44.5062 4.42969 44.8867 4.24056 45.3242 4.1084C45.7663 3.97624 46.2539 3.91016 46.7871 3.91016C47.5254 3.91016 48.1634 4.0446 48.7012 4.31348C49.2435 4.58236 49.6628 4.94694 49.959 5.40723C50.2552 5.86751 50.4033 6.38477 50.4033 6.95898H48.5303C48.5303 6.64909 48.4642 6.37565 48.332 6.13867C48.2044 5.90169 48.0085 5.71484 47.7441 5.57812C47.4844 5.44141 47.1562 5.37305 46.7598 5.37305C46.377 5.37305 46.0579 5.43001 45.8027 5.54395C45.5521 5.65788 45.363 5.81283 45.2354 6.00879C45.1123 6.20475 45.0508 6.4235 45.0508 6.66504C45.0508 6.84733 45.0941 7.01139 45.1807 7.15723C45.2673 7.2985 45.3971 7.43294 45.5703 7.56055C45.7435 7.68359 45.9577 7.7998 46.2129 7.90918C46.4727 8.014 46.7734 8.11882 47.1152 8.22363C47.6621 8.3877 48.1406 8.56999 48.5508 8.77051C48.9655 8.97103 49.3096 9.19889 49.583 9.4541C49.861 9.70931 50.0684 9.99642 50.2051 10.3154C50.3464 10.6344 50.417 10.9967 50.417 11.4023C50.417 11.8307 50.3327 12.2135 50.1641 12.5508C49.9954 12.888 49.7539 13.1751 49.4395 13.4121C49.125 13.6491 48.7467 13.8291 48.3047 13.9521C47.8672 14.0752 47.3773 14.1367 46.835 14.1367C46.3519 14.1367 45.8734 14.0729 45.3994 13.9453C44.93 13.8132 44.5039 13.6172 44.1211 13.3574C43.7383 13.0931 43.4329 12.7604 43.2051 12.3594C42.9772 11.9538 42.8633 11.4798 42.8633 10.9375H44.75C44.75 11.252 44.8001 11.5208 44.9004 11.7441C45.0052 11.9629 45.151 12.1429 45.3379 12.2842C45.5293 12.4209 45.7526 12.5212 46.0078 12.585C46.263 12.6488 46.5387 12.6807 46.835 12.6807C47.2178 12.6807 47.5322 12.6283 47.7783 12.5234C48.029 12.4141 48.2158 12.2637 48.3389 12.0723C48.4665 11.8809 48.5303 11.6621 48.5303 11.416ZM57.6904 10.7256H59.5703C59.5202 11.391 59.3356 11.9811 59.0166 12.4961C58.6976 13.0065 58.2533 13.4076 57.6836 13.6992C57.1139 13.9909 56.4235 14.1367 55.6123 14.1367C54.988 14.1367 54.4251 14.0273 53.9238 13.8086C53.4271 13.5853 53.001 13.2686 52.6455 12.8584C52.2946 12.4437 52.0257 11.9469 51.8389 11.3682C51.652 10.7848 51.5586 10.1309 51.5586 9.40625V8.64746C51.5586 7.92285 51.6543 7.26888 51.8457 6.68555C52.0371 6.10221 52.3105 5.60547 52.666 5.19531C53.026 4.7806 53.4567 4.46159 53.958 4.23828C54.4639 4.01497 55.029 3.90332 55.6533 3.90332C56.4645 3.90332 57.1504 4.05371 57.7109 4.35449C58.2715 4.65072 58.7067 5.05859 59.0166 5.57812C59.3265 6.09766 59.5133 6.69466 59.5771 7.36914H57.6973C57.6608 6.94987 57.5697 6.5944 57.4238 6.30273C57.2826 6.01107 57.0684 5.79004 56.7812 5.63965C56.4987 5.4847 56.1227 5.40723 55.6533 5.40723C55.2887 5.40723 54.9674 5.47559 54.6895 5.6123C54.416 5.74902 54.1882 5.9541 54.0059 6.22754C53.8236 6.49642 53.6868 6.83366 53.5957 7.23926C53.5046 7.6403 53.459 8.10514 53.459 8.63379V9.40625C53.459 9.91211 53.5 10.3656 53.582 10.7666C53.6641 11.1676 53.7917 11.5072 53.9648 11.7852C54.138 12.0632 54.3613 12.2751 54.6348 12.4209C54.9082 12.5667 55.234 12.6396 55.6123 12.6396C56.0726 12.6396 56.4463 12.5667 56.7334 12.4209C57.0251 12.2751 57.2461 12.0609 57.3965 11.7783C57.5514 11.4958 57.6494 11.1449 57.6904 10.7256ZM61.0264 4.04688H64.6426C65.3991 4.04688 66.0485 4.16081 66.5908 4.38867C67.1331 4.61654 67.5501 4.95378 67.8418 5.40039C68.1335 5.84701 68.2793 6.39616 68.2793 7.04785C68.2793 7.56283 68.1882 8.00944 68.0059 8.3877C67.8236 8.76595 67.5661 9.08268 67.2334 9.33789C66.9053 9.5931 66.5179 9.79362 66.0713 9.93945L65.4834 10.2402H62.291L62.2773 8.75684H64.6631C65.0505 8.75684 65.3717 8.68848 65.627 8.55176C65.8822 8.41504 66.0736 8.22591 66.2012 7.98438C66.3333 7.74284 66.3994 7.46712 66.3994 7.15723C66.3994 6.82454 66.3356 6.53743 66.208 6.2959C66.0804 6.0498 65.8867 5.86068 65.627 5.72852C65.3672 5.59635 65.0391 5.53027 64.6426 5.53027H62.9062V14H61.0264V4.04688ZM66.6455 14L64.3418 9.54297L66.3311 9.53613L68.6621 13.9043V14H66.6455ZM71.9297 4.04688V14H70.0498V4.04688H71.9297ZM77.7881 10.3701H75.2246V8.89355H77.7881C78.2074 8.89355 78.5469 8.8252 78.8066 8.68848C79.071 8.5472 79.2646 8.35579 79.3877 8.11426C79.5107 7.86816 79.5723 7.58789 79.5723 7.27344C79.5723 6.9681 79.5107 6.68327 79.3877 6.41895C79.2646 6.15462 79.071 5.94043 78.8066 5.77637C78.5469 5.6123 78.2074 5.53027 77.7881 5.53027H75.8398V14H73.96V4.04688H77.7881C78.5628 4.04688 79.2236 4.18587 79.7705 4.46387C80.3219 4.7373 80.7412 5.11784 81.0283 5.60547C81.32 6.08854 81.4658 6.63997 81.4658 7.25977C81.4658 7.90234 81.32 8.45605 81.0283 8.9209C80.7412 9.38574 80.3219 9.74349 79.7705 9.99414C79.2236 10.2448 78.5628 10.3701 77.7881 10.3701ZM87.2148 4.04688V14H85.3418V4.04688H87.2148ZM90.3047 4.04688V5.53027H82.2861V4.04688H90.3047Z" fill="white"></path></svg>